<svg viewBox="0 0 604 515" xmlns="http://www.w3.org/2000/svg" xmlns:xlink="http://www.w3.org/1999/xlink" width="603.999939" height="515.000000" fill="none" customFrame="#000000">
	<defs>
		<clipPath id="clipPath_0">
			<rect width="36.000000" height="36.000000" x="292.999512" y="427.000000" fill="rgb(255,255,255)" />
		</clipPath>
		<clipPath id="clipPath_1">
			<rect width="70.325882" height="70.325882" x="0.000000" y="0.000000" fill="rgb(255,255,255)" transform="matrix(0.707107,0.707107,-0.707107,0.707107,107.728,313)" />
		</clipPath>
	</defs>
	<g id="Illustration">
		<g id="Frame" clip-path="url(#clipPath_0)" customFrame="url(#clipPath_0)">
			<rect id="Frame" width="36.000000" height="36.000000" x="292.999512" y="427.000000" fill="rgb(255,255,255)" fill-opacity="0" />
			<path id="Vector" d="M310.998 432.535L328.599 427.349L323.464 445L328.599 462.601L310.998 457.465L293.347 462.601L298.533 445L293.347 427.349L310.998 432.535Z" fill="rgb(0,0,0)" fill-rule="nonzero" />
			<path id="Vector" d="M328.599 427.349L323.464 445L328.599 462.601L310.998 457.465L293.347 462.601L298.533 445L293.347 427.349L310.998 432.535L328.599 427.349Z" fill-rule="nonzero" stroke="rgb(255,255,255)" stroke-width="1" />
		</g>
		<g id="Frame" clip-path="url(#clipPath_1)" customFrame="url(#clipPath_1)">
			<rect id="Frame" width="70.325882" height="70.325882" x="0.000000" y="0.000000" fill="rgb(255,255,255)" fill-opacity="0" transform="matrix(0.707107,0.707107,-0.707107,0.707107,107.728,313)" />
			<path id="Vector" d="M34.4811 10.13L68.8648 0L58.8322 34.4811L68.8648 68.8648L34.4811 58.8322L0 68.8648L10.13 34.4811L0 0L34.4811 10.13Z" fill="rgb(0,0,0)" fill-rule="nonzero" transform="matrix(0.707107,0.707107,-0.707107,0.707107,107.728,313.964)" />
			<path id="Vector" d="M68.8648 0L58.8322 34.4811L68.8648 68.8648L34.4811 58.8322L0 68.8648L10.13 34.4811L0 0L34.4811 10.13L68.8648 0Z" fill-rule="nonzero" stroke="rgb(255,255,255)" stroke-width="1" transform="matrix(0.707107,0.707107,-0.707107,0.707107,107.728,313.964)" />
		</g>
		<ellipse id="Ellipse 7" rx="282.630463" ry="58.974152" cx="283.130463" cy="59.4741516" stroke="rgb(0,0,0)" stroke-width="1" transform="matrix(0.875627,0.482989,-0.482989,0.875627,97.9097,64)" />
		<ellipse id="Ellipse 8" rx="282.630463" ry="58.974152" cx="283.130463" cy="59.4741516" stroke="rgb(0,0,0)" stroke-width="1" transform="matrix(0.875627,0.482989,-0.482989,0.875627,77.6792,100.674)" />
		<ellipse id="Ellipse 9" rx="282.630463" ry="58.974152" cx="283.130463" cy="59.4741516" stroke="rgb(0,0,0)" stroke-width="1" transform="matrix(0.875627,0.482989,-0.482989,0.875627,57.4507,137.348)" />
		<circle id="Ellipse 14" cx="131.499512" cy="104.5" r="15.5" fill="rgb(185,255,102)" />
		<circle id="Ellipse 16" cx="420.999512" cy="435" r="10" fill="rgb(185,255,102)" />
		<circle id="Ellipse 15" cx="81.4995117" cy="64.5" r="23.5" fill="rgb(0,0,0)" />
		<g id="Group">
			<g id="Group">
				<g id="Group">
					<g id="Group">
						<path id="Vector" d="M308.667 383.59C302.345 385.744 295.12 381.475 292.607 374.071L253.496 259.81L276.35 252.015L315.499 366.433C318.012 373.758 314.95 381.436 308.667 383.59Z" fill="rgb(0,0,0)" fill-rule="nonzero" />
						<path id="Vector" d="M305.25 385C303.405 385 301.52 384.569 299.714 383.668C296.062 381.866 293.156 378.497 291.742 374.345L252.632 260.084C252.475 259.653 252.711 259.144 253.182 258.987L276.035 251.192C276.271 251.113 276.507 251.113 276.703 251.231C276.899 251.348 277.056 251.505 277.135 251.74L316.284 366.159C318.915 373.914 315.617 382.101 308.902 384.412C307.763 384.804 306.507 385 305.25 385ZM254.596 260.358L293.431 373.797C294.687 377.518 297.279 380.574 300.499 382.14C303.091 383.394 305.879 383.629 308.392 382.767C314.203 380.769 317.031 373.562 314.674 366.707L275.8 253.111L254.596 260.358Z" fill="rgb(0,0,0)" fill-rule="nonzero" />
					</g>
					<path id="Vector" d="M272.305 153.382L198.364 205.988L169.581 235.798L158.272 255.736L158.233 255.892C155.995 259.339 157.291 267.291 161.492 275.399C165.615 283.39 171.427 288.953 175.511 289.266L175.393 289.344L197.108 291.695L237.749 285.231L324.02 254.443L431.258 272.775L432.005 272.814C405.067 267.8 368.706 231.88 342.279 181.076C315.891 130.31 307.488 80.132 319.072 55.376L319.033 55.376L272.894 152.128L272.305 153.382Z" fill="rgb(185,255,102)" fill-rule="nonzero" />
					<g id="Group">
						<path id="Vector" d="M54.0429 257.409C83.89 257.409 108.086 199.786 108.086 128.705C108.086 57.6231 83.89 0 54.0429 0C24.1958 0 0 57.6231 0 128.705C0 199.786 24.1958 257.409 54.0429 257.409Z" fill="rgb(255,255,255)" fill-rule="evenodd" transform="matrix(0.887962,-0.460009,0.461792,0.887036,282.969,67.1313)" />
						<path id="Vector" d="M438.17 274.185C426.626 274.185 412.725 267.761 397.764 255.266C377.384 238.266 357.397 212.06 341.494 181.428C317.423 135.05 307.489 87.4964 316.206 60.2726C319.112 51.1849 323.981 44.8392 330.617 41.4313C343.811 34.6939 362.384 40.4129 382.96 57.5698C403.34 74.57 423.327 100.775 439.23 131.407C463.341 177.786 473.275 225.339 464.519 252.563C461.613 261.651 456.744 267.996 450.107 271.404C446.534 273.284 442.529 274.185 438.17 274.185ZM342.633 40.4129C338.588 40.4129 334.819 41.2355 331.442 42.9982C325.198 46.171 320.643 52.2033 317.895 60.8601C309.295 87.6922 319.19 134.737 343.065 180.723C375.578 243.279 423.249 283.312 449.361 269.955C455.605 266.782 460.16 260.75 462.909 252.093C471.508 225.261 461.613 178.216 437.738 132.23C409.427 77.782 369.688 40.4129 342.633 40.4129Z" fill="rgb(0,0,0)" fill-rule="nonzero" />
					</g>
					<path id="Vector" d="M438.17 274.185C426.625 274.185 412.725 267.761 397.764 255.266C377.384 238.265 357.397 212.06 341.494 181.428C317.423 135.05 307.488 87.4963 316.206 60.2725C319.112 51.1848 323.981 44.8391 330.617 41.4312C339.452 36.8874 350.997 38.0234 363.994 44.6824C376.442 51.0673 389.911 62.3877 403.026 77.3902C403.34 77.7427 403.301 78.2911 402.947 78.6045C402.594 78.9179 402.044 78.8787 401.73 78.5262C375.107 48.0511 348.169 34.4196 331.442 42.9981C325.198 46.1709 320.643 52.2033 317.894 60.86C309.295 87.6922 319.19 134.737 343.065 180.723C371.337 235.132 411.115 272.54 438.131 272.54C442.175 272.54 445.945 271.717 449.322 269.955C455.565 266.782 460.12 260.75 462.869 252.093C471.469 225.261 461.573 178.216 437.699 132.23C430.591 118.52 422.581 105.632 413.981 93.9204C413.706 93.5286 413.785 92.9803 414.178 92.7061C414.57 92.4319 415.12 92.5102 415.395 92.9019C424.073 104.692 432.084 117.658 439.269 131.446C463.34 177.785 473.275 225.339 464.518 252.563C461.613 261.65 456.743 267.996 450.107 271.404C446.534 273.284 442.529 274.185 438.17 274.185Z" fill="rgb(0,0,0)" fill-rule="nonzero" />
					<g id="Group">
						<path id="Vector" d="M12.5198 59.571C19.4342 59.571 25.0395 46.2356 25.0395 29.7855C25.0395 13.3354 19.4342 0 12.5198 0C5.60529 0 0 13.3354 0 29.7855C0 46.2356 5.60529 59.571 12.5198 59.571Z" fill="rgb(185,255,102)" fill-rule="evenodd" transform="matrix(0.887962,-0.460009,0.461792,0.887036,351.066,143.256)" />
						<path id="Vector" d="M387.005 191.848C380.251 191.848 370.827 183.152 364.034 170.03C358.38 159.14 356.063 147.937 358.144 141.474C358.89 139.202 360.107 137.596 361.796 136.734C368.471 133.326 379.898 142.61 387.83 157.847C393.484 168.737 395.801 179.94 393.72 186.403C392.974 188.675 391.757 190.281 390.068 191.143C389.126 191.613 388.105 191.848 387.005 191.848ZM364.859 137.714C364.034 137.714 363.249 137.87 362.581 138.223C361.285 138.889 360.343 140.142 359.754 141.983C357.83 148.016 360.068 158.748 365.526 169.246C372.751 183.152 383.628 192.514 389.244 189.615C390.539 188.949 391.482 187.696 392.071 185.855C393.995 179.783 391.717 169.09 386.299 158.592C379.937 146.41 370.827 137.714 364.859 137.714Z" fill="rgb(185,255,102)" fill-rule="nonzero" />
					</g>
					<path id="Vector" d="M432.202 259.574C422.071 259.574 409.898 253.934 396.783 243.005C378.955 228.12 361.442 205.166 347.542 178.373C326.455 137.792 317.777 96.153 325.395 72.2978C327.947 64.307 332.227 58.7447 338.078 55.7285C351.508 48.8736 371.259 56.7861 392.306 77.4292C392.66 77.7818 392.66 78.291 392.306 78.6435C391.953 78.9961 391.442 78.9961 391.089 78.6435C370.591 58.5488 351.547 50.7146 338.863 57.2562C333.445 60.0373 329.479 65.2471 327.044 72.8071C319.544 96.2313 328.183 137.361 349.073 177.589C373.772 225.182 408.524 257.851 432.162 257.851C435.697 257.851 438.956 257.107 441.94 255.618C447.359 252.837 451.325 247.627 453.759 240.067C461.26 216.643 452.621 175.513 431.731 135.285C425.409 123.142 418.34 111.743 410.723 101.441C410.448 101.049 410.526 100.501 410.919 100.227C411.312 99.9526 411.861 100.031 412.136 100.423C419.833 110.842 426.94 122.28 433.301 134.501C454.388 175.082 463.066 216.721 455.448 240.576C452.896 248.567 448.615 254.13 442.765 257.146C439.545 258.752 436.011 259.574 432.202 259.574Z" fill="rgb(0,0,0)" fill-rule="nonzero" />
					<path id="Vector" d="M197.148 292.517C197.109 292.517 197.069 292.517 197.069 292.517L175.354 290.167C175.237 290.167 175.119 290.128 175.001 290.05C170.525 289.344 164.87 283.704 160.747 275.791C156.349 267.448 155.053 259.3 157.449 255.462L157.488 255.344L168.797 235.367C168.836 235.289 168.875 235.249 168.915 235.21L197.698 205.401C197.737 205.362 197.776 205.323 197.815 205.284L271.559 152.794L318.209 54.9845C318.327 54.7886 318.484 54.632 318.719 54.5536C318.955 54.4753 319.19 54.4753 319.387 54.5928C319.819 54.7886 320.015 55.2979 319.819 55.7288C307.999 80.994 317.345 131.211 343.026 180.645C368.746 230.157 404.597 266.821 432.202 271.874C432.634 271.953 432.948 272.344 432.909 272.814C432.869 273.245 432.477 273.559 432.045 273.598L431.299 273.559C431.259 273.559 431.22 273.559 431.181 273.559L324.138 255.266L238.064 285.976C238.025 285.976 237.946 286.015 237.907 286.015L197.266 292.478C197.226 292.517 197.187 292.517 197.148 292.517ZM175.983 288.522L197.148 290.794L237.593 284.331L323.824 253.581C323.981 253.542 324.099 253.503 324.256 253.542L420.618 269.994C394.584 258.595 364.151 224.947 341.573 181.468C319.151 138.301 309.138 94.4689 314.635 66.775L273.091 153.735C273.012 153.852 272.934 153.97 272.816 154.048L198.954 206.655L170.289 236.307L158.98 256.284C158.98 256.323 158.941 256.362 158.941 256.362C156.899 259.535 158.273 267.37 162.239 275.008C166.127 282.49 171.742 288.13 175.59 288.404C175.747 288.404 175.865 288.444 175.983 288.522Z" fill="rgb(0,0,0)" fill-rule="nonzero" />
					<g id="Group">
						<path id="Vector" d="M272.422 153.069L319.032 55.3369L319.071 55.3369C307.487 80.093 315.93 130.271 342.278 181.037C368.705 231.881 405.066 267.8 432.082 272.736L431.336 272.697L324.254 254.404L321.781 253.973C309.333 251.779 292.723 235.641 280.825 212.608C268.613 188.988 266.453 165.447 271.872 154.244L272.422 153.069Z" fill="rgb(255,255,255)" fill-rule="nonzero" />
						<path id="Vector" d="M432.083 273.598L431.297 273.558C431.258 273.558 431.219 273.558 431.179 273.558L324.098 255.266L321.624 254.835C308.469 252.524 291.781 235.719 280.04 213.039C266.728 187.265 266.061 164.311 271.087 153.891L271.676 152.716L318.286 55.0236C318.404 54.8277 318.561 54.671 318.797 54.5927C319.032 54.5143 319.268 54.5143 319.464 54.6319C319.896 54.8277 320.092 55.3369 319.896 55.7678C308.077 81.0331 317.422 131.25 343.103 180.684C368.823 230.196 404.674 266.86 432.279 271.913C432.711 271.992 433.025 272.383 432.986 272.853C432.868 273.245 432.515 273.598 432.083 273.598ZM314.556 66.7749L273.207 153.46L272.618 154.635C267.631 164.977 269.084 188.087 281.571 212.217C293.076 234.466 309.294 250.918 321.938 253.111L324.412 253.542L420.577 269.994C394.543 258.595 364.111 224.947 341.532 181.467C319.111 138.301 309.098 94.4687 314.556 66.7749Z" fill="rgb(0,0,0)" fill-rule="nonzero" />
					</g>
					<path id="Vector" d="M195.969 292.4C195.93 292.4 195.891 292.4 195.891 292.4L175.315 290.206C175.197 290.206 175.079 290.167 174.961 290.089C170.485 289.384 164.83 283.743 160.707 275.831C156.349 267.448 155.053 259.3 157.448 255.462L157.487 255.344L168.796 235.367C169.032 234.936 169.542 234.819 169.974 235.054C170.406 235.289 170.524 235.798 170.288 236.229L158.979 256.284C158.979 256.323 158.94 256.363 158.94 256.363C156.898 259.535 158.273 267.37 162.239 275.008C166.126 282.49 171.741 288.13 175.59 288.404C175.707 288.404 175.864 288.444 175.943 288.522L196.048 290.676C196.519 290.716 196.872 291.146 196.794 291.616C196.755 292.047 196.401 292.4 195.969 292.4Z" fill="rgb(0,0,0)" fill-rule="nonzero" />
					<g id="Group">
						<path id="Vector" d="M197.343 291.538C190.668 291.068 181.322 281.628 174.529 268.584C167.343 254.757 165.655 240.459 170.053 235.367L158.312 255.736L158.233 255.893C155.995 259.34 157.291 267.292 161.492 275.4C165.615 283.391 171.427 288.953 175.511 289.266L175.393 289.345L197.343 291.538Z" fill="rgb(255,255,255)" fill-rule="nonzero" />
						<path id="Vector" d="M197.344 292.4C197.304 292.4 197.304 292.4 197.265 292.4C197.108 292.4 196.912 292.361 196.755 292.361L175.315 290.206C175.197 290.206 175.079 290.167 174.961 290.089C170.485 289.384 164.83 283.743 160.707 275.831C156.349 267.448 155.053 259.301 157.448 255.462L157.487 255.344L167.815 237.404C168.207 236.386 168.718 235.485 169.346 234.74C169.621 234.388 170.131 234.349 170.485 234.584C170.838 234.858 170.956 235.328 170.72 235.72L169.267 238.187C166.951 244.416 169.228 256.637 175.197 268.075C181.676 280.57 190.511 289.697 196.833 290.52L197.304 290.559C197.776 290.598 198.129 291.029 198.09 291.499C198.129 292.048 197.776 292.4 197.344 292.4ZM175.943 288.522L190.943 290.05C185.171 286.368 178.809 278.769 173.744 268.976C168.836 259.536 166.401 249.743 166.794 242.692L158.979 256.284C158.979 256.324 158.94 256.363 158.94 256.363C156.898 259.536 158.273 267.37 162.239 275.008C166.126 282.49 171.741 288.13 175.59 288.405C175.707 288.405 175.864 288.444 175.943 288.522Z" fill="rgb(0,0,0)" fill-rule="nonzero" />
					</g>
					<g id="Group">
						<path id="Vector" d="M236.296 285.388L238.024 285.035C228.678 286.994 213.914 272.892 203.508 252.876C192.867 232.429 190.864 212.021 198.403 205.988L197.422 206.968L170.131 235.249C165.654 240.263 167.304 254.639 174.529 268.544C181.479 281.941 191.335 291.499 198.05 291.459L236.296 285.388Z" fill="rgb(0,0,0)" fill-rule="nonzero" />
						<path id="Vector" d="M198.011 292.36C190.865 292.36 180.93 282.764 173.744 268.975C166.44 254.874 164.595 240.146 169.464 234.701L196.244 206.968C196.716 206.341 197.265 205.793 197.854 205.323C198.208 205.048 198.718 205.087 199.032 205.401C199.346 205.753 199.346 206.263 199.032 206.576L197.501 208.182C192.043 215.468 194.752 234.113 204.294 252.484C214.582 272.305 228.954 285.897 237.75 284.252L237.868 284.213C238.339 284.135 238.771 284.409 238.889 284.879C238.967 285.349 238.692 285.78 238.221 285.897C238.182 285.897 238.143 285.897 238.103 285.936L236.493 286.25L236.454 286.25L198.208 292.321C198.129 292.321 198.051 292.36 198.011 292.36ZM193.967 211.825L170.76 235.876C166.44 240.733 168.404 254.913 175.315 268.192C182.069 281.197 191.611 290.598 198.011 290.637L231.781 285.271C222.671 282.058 211.441 269.955 202.763 253.307C194.517 237.443 191.336 221.304 193.967 211.825Z" fill="rgb(0,0,0)" fill-rule="nonzero" />
					</g>
					<g id="Group">
						<path id="Vector" d="M362.188 137.479C356.023 140.612 356.927 155.145 364.78 169.638C377.935 193.885 388.419 191.025 389.636 190.594C389.676 190.594 389.676 190.634 389.636 190.634L367.058 208.77C360.421 199.486 354.099 189.145 348.288 177.981C342.751 167.288 338.078 156.633 334.387 146.292L362.188 137.479Z" fill="rgb(0,0,0)" fill-rule="nonzero" />
						<path id="Vector" d="M367.057 209.631C367.018 209.631 366.979 209.631 366.94 209.631C366.704 209.592 366.508 209.475 366.351 209.279C359.557 199.76 353.235 189.341 347.542 178.412C342.083 167.914 337.371 157.221 333.602 146.645C333.523 146.41 333.523 146.174 333.641 145.979C333.759 145.783 333.916 145.626 334.151 145.548L361.953 136.734C362.385 136.617 362.856 136.813 363.013 137.243C363.17 137.674 363.013 138.144 362.62 138.34C361.285 139.006 360.303 140.338 359.714 142.297C357.79 148.446 360.146 159.336 365.605 169.325C378.445 192.984 388.34 190.281 389.401 189.889C389.793 189.733 390.264 189.928 390.461 190.281C390.657 190.634 390.579 191.143 390.264 191.417L367.607 209.436C367.45 209.553 367.254 209.631 367.057 209.631ZM335.526 146.84C339.256 157.064 343.811 167.405 349.073 177.59C354.57 188.166 360.696 198.233 367.254 207.516L386.848 191.77C382.372 191.574 373.929 188.244 364.034 170.03C358.301 159.493 355.945 148.368 358.026 141.67C358.301 140.808 358.615 140.064 359.008 139.359L335.526 146.84Z" fill="rgb(0,0,0)" fill-rule="nonzero" />
					</g>
				</g>
			</g>
			<g id="Group">
				<g id="Group">
					<path id="Vector" d="M36.6955 72.9752C56.9618 72.9752 73.3909 56.6391 73.3909 36.4876C73.3909 16.336 56.9618 0 36.6955 0C16.4291 0 0 16.336 0 36.4876C0 56.6391 16.4291 72.9752 36.6955 72.9752Z" fill="rgb(0,0,0)" fill-rule="evenodd" transform="matrix(0.885769,-0.464006,0.465795,0.884829,411.87,34.0537)" />
					<g id="Group">
						<path id="Vector" d="M444.65 41.2352C446.378 38.8849 448.93 37.4356 451.836 37.1223C454.035 36.8872 456.077 37.3573 458.001 38.5324C458.982 39.12 459.846 39.8642 460.671 40.7652C461.26 39.7075 461.967 38.7674 462.791 37.984C464.401 36.4172 466.325 35.5162 468.485 35.2812C471.391 34.9678 474.218 35.8296 476.417 37.749C478.577 39.6292 479.951 42.3712 480.305 45.4657C480.658 48.6385 479.794 51.6939 477.595 55.0626C475.632 58.0787 472.647 61.2124 469.192 64.8945C468.014 66.1479 466.679 67.5581 465.304 69.0466C464.951 69.4383 464.441 69.7125 463.891 69.7517C463.341 69.83 462.831 69.6733 462.359 69.36C460.671 68.1848 459.061 67.0881 457.647 66.1479C453.485 63.3276 449.872 60.899 447.281 58.3921C444.375 55.611 442.883 52.7906 442.529 49.6178C442.215 46.5233 442.961 43.5463 444.65 41.2352Z" fill="rgb(255,255,255)" fill-rule="nonzero" />
					</g>
				</g>
				<g id="Group">
					<g id="Group">
						<path id="Vector" d="M33.6108 67.2216C52.1736 67.2216 67.2216 52.1736 67.2216 33.6108C67.2216 15.0481 52.1736 0 33.6108 0C15.0481 0 0 15.0481 0 33.6108C0 52.1736 15.0481 67.2216 33.6108 67.2216Z" fill="rgb(185,255,102)" fill-rule="evenodd" transform="matrix(0.707967,-0.706231,0.707967,0.706231,508.818,59.8555)" />
						<path id="Vector" d="M556.403 94.2732C537.398 94.2732 521.887 78.8399 521.887 59.8419C521.887 40.8832 537.358 25.4106 556.403 25.4106C575.448 25.4106 590.919 40.844 590.919 59.8419C590.919 78.8007 575.448 94.2732 556.403 94.2732ZM556.403 27.1342C538.34 27.1342 523.615 41.7841 523.615 59.8419C523.615 77.8606 538.301 92.5497 556.403 92.5497C574.466 92.5497 589.191 77.8998 589.191 59.8419C589.191 41.8233 574.505 27.1342 556.403 27.1342Z" fill="rgb(185,255,102)" fill-rule="nonzero" />
					</g>
					<path id="Vector" d="M565.512 63.1713C563.628 63.1713 561.978 64.0723 560.879 65.4824L549.531 61.0561C549.531 60.8994 549.57 60.7819 549.57 60.6252C549.57 60.351 549.531 60.0768 549.491 59.8026L561.115 54.4362C562.175 55.6505 563.745 56.4339 565.512 56.4731C568.732 56.4731 571.403 53.8486 571.403 50.5974C571.403 47.3462 568.772 44.6826 565.512 44.6826C562.293 44.6826 559.622 47.3071 559.622 50.5583C559.622 50.8325 559.662 51.1067 559.701 51.3809L548.078 56.7473C547.018 55.533 545.447 54.7496 543.68 54.7104C540.46 54.7104 537.79 57.3348 537.79 60.586C537.79 63.8372 540.421 66.5009 543.68 66.5009C545.565 66.5009 547.214 65.5999 548.313 64.1898L559.662 68.6161C559.662 68.7728 559.622 68.8903 559.622 69.047C559.622 72.2982 562.253 74.9618 565.512 74.9618C568.732 74.9618 571.403 72.3373 571.403 69.0861C571.363 65.8349 568.732 63.2105 565.512 63.1713Z" fill="rgb(0,0,0)" fill-rule="nonzero" />
				</g>
				<g id="Group">
					<path id="Vector" d="M33.9391 67.428C52.6832 67.428 67.8783 52.3337 67.8783 33.714C67.8783 15.0943 52.6832 0 33.9391 0C15.1951 0 0 15.0943 0 33.714C0 52.3337 15.1951 67.428 33.9391 67.428Z" fill="rgb(0,0,0)" fill-rule="evenodd" transform="matrix(0.822155,-0.569255,0.571145,0.820843,499.544,153.965)" />
					<path id="Vector" d="M538.224 178.373L533.276 151.619C533.041 150.248 534.297 149.112 535.632 149.465L564.886 157.73C566.378 158.161 566.732 160.08 565.515 161.02L541.169 179.509C540.109 180.371 538.499 179.783 538.224 178.373Z" fill="rgb(255,255,255)" fill-rule="nonzero" />
				</g>
				<g id="Group">
					<g id="Group">
						<path id="Vector" d="M38.3069 76.0275C59.4632 76.0275 76.6137 59.0082 76.6137 38.0138C76.6137 17.0193 59.4632 0 38.3069 0C17.1506 0 0 17.0193 0 38.0138C0 59.0082 17.1506 76.0275 38.3069 76.0275Z" fill="rgb(185,255,102)" fill-rule="evenodd" transform="matrix(0.899522,-0.436832,0.438569,0.898676,478.57,247.991)" />
						<path id="Vector" d="M529.505 304.347C525.421 304.347 521.259 303.72 517.215 302.349C507.319 299.059 499.309 292.165 494.675 282.842C490.042 273.559 489.335 263.022 492.673 253.151C499.584 232.821 521.809 221.735 542.267 228.512C552.162 231.802 560.173 238.696 564.807 248.019C569.44 257.303 570.147 267.84 566.809 277.711C561.233 294.006 545.88 304.347 529.505 304.347ZM529.898 228.277C514.23 228.277 499.544 238.148 494.243 253.738C491.063 263.178 491.73 273.245 496.167 282.098C500.605 290.99 508.262 297.61 517.725 300.743C537.28 307.206 558.524 296.63 565.121 277.202C568.301 267.761 567.634 257.694 563.197 248.842C558.759 239.95 551.102 233.33 541.639 230.196C537.751 228.865 533.785 228.277 529.898 228.277Z" fill="rgb(0,0,0)" fill-rule="nonzero" />
					</g>
					<g id="Group">
						<path id="Vector" d="M549.219 259.261C548.826 268.78 532.687 291.029 528.839 296.239C528.447 296.787 527.622 296.748 527.268 296.16C524.834 292.243 516.784 279.082 512.583 268.427C510.894 264.197 509.834 260.358 509.952 257.655C510.384 246.844 519.533 238.422 530.371 238.853C541.208 239.362 549.651 248.45 549.219 259.261Z" fill="rgb(0,0,0)" fill-rule="nonzero" />
						<path id="Vector" d="M8.9812 17.9624C13.9414 17.9624 17.9624 13.9414 17.9624 8.9812C17.9624 4.02102 13.9414 0 8.9812 0C4.02102 0 0 4.02102 0 8.9812C0 13.9414 4.02102 17.9624 8.9812 17.9624Z" fill="rgb(185,255,102)" fill-rule="evenodd" transform="matrix(0.707967,-0.706231,0.707967,0.706231,516.861,258.484)" />
					</g>
				</g>
			</g>
		</g>
	</g>
</svg>
