<svg xmlns="http://www.w3.org/2000/svg">
  <symbol id="arrow" viewBox="0 0 24 20">
<path  d="M1.5 8.49146L21.5 8.49146L21.5 11.4915L1.5 11.4915L1.5 8.49146ZM1.52 11.4715L1.5 11.4915C0.66 11.4915 0 10.8315 0 9.99146C0 9.15145 0.66 8.49146 1.5 8.49146L1.52 8.51146L1.52 11.4715ZM19.3787 9.99146L11.9541 2.56683C11.3601 1.97286 11.3601 1.03948 11.9541 0.445514C12.548 -0.148456 13.4814 -0.148456 14.0754 0.445514L22.5607 8.93079C23.1546 9.52476 23.1546 10.4581 22.5607 11.0521L14.0754 19.5374C13.4814 20.1314 12.548 20.1314 11.9541 19.5374C11.3601 18.9434 11.3601 18.01 11.9541 17.4161L19.3787 9.99146Z" fill-rule="nonzero" />
   </symbol>
<symbol id="dot" viewBox="0 0 14 14">
<path id="Vector" d="M7.0099 2.05941L14 0L11.9604 7.0099L14 14L7.0099 11.9604L0 14L2.05941 7.0099L0 0L7.0099 2.05941Z" fill-rule="nonzero" />
</symbol>
</svg>