<svg xmlns="http://www.w3.org/2000/svg" viewBox="0 0 41 41">
  <symbol id="arrow" viewBox="0 0 41 41" >
    <circle cx="20.5" cy="20.5" r="20.5" fill="var(--icon-bg-color, #000)" />
    <path
      d="M0 -1.5L20 -1.5L20 1.5L0 1.5L0 -1.5ZM0.02 1.48L0 1.5C-0.84 1.5 -1.5 0.84 -1.5 -0C-1.5 -0.84 -0.84 -1.5 0 -1.5L0.02 -1.48L0.02 1.48ZM17.8787 0L10.4541 -7.42462C9.86009 -8.01859 9.86009 -8.95197 10.4541 -9.54594C11.048 -10.1399 11.9814 -10.1399 12.5754 -9.54594L21.0607 -1.06066C21.6546 -0.466691 21.6546 0.466691 21.0607 1.06066L12.5754 9.54594C11.9814 10.1399 11.048 10.1399 10.4541 9.54594C9.86009 8.95197 9.86009 8.01859 10.4541 7.42462L17.8787 0Z"
      fill="var(--icon-arrow-color, #fff)"
      fill-rule="nonzero"
      transform="matrix(0.866025,-0.5,0.5,0.866025,12.0001,26)"
    />
  </symbol>
</svg>
