<svg xmlns="http://www.w3.org/2000/svg">
	<symbol id="positivus" viewBox="0 0 219.189 35.252" >
	<path  d="M17.651 5.1856L35.2521 0L30.1163 17.651L35.2521 35.2521L17.651 30.1163L0 35.2521L5.1856 17.651L0 0L17.651 5.1856ZM48.5723 30.6509L48.5723 2.65088L59.6923 2.65088C61.3989 2.65088 62.9189 2.99755 64.2523 3.69088C65.6123 4.35755 66.6656 5.31755 67.4123 6.57088Q68.5723 8.41088 68.5723 11.0109L68.5723 11.5309C68.5723 13.2642 68.1723 14.7575 67.3723 16.0109C66.5989 17.2642 65.5456 18.2242 64.2123 18.8909Q62.2123 19.8909 59.6923 19.8909L52.8923 19.8909L52.8923 30.6509L48.5723 30.6509ZM119.952 8.25088Q119.219 8.25088 118.62 7.96728L118.62 7.96723Q118.239 7.78658 117.912 7.49088C117.379 6.95755 117.112 6.27755 117.112 5.45088C117.112 4.62421 117.379 3.95755 117.912 3.45088Q118.28 3.09995 118.718 2.90296Q119.278 2.65088 119.952 2.65088Q120.764 2.65088 121.387 2.99358Q121.716 3.17448 121.992 3.45088C122.525 3.95755 122.792 4.62421 122.792 5.45088C122.792 6.27755 122.525 6.95755 121.992 7.49088Q121.758 7.71316 121.486 7.87043L121.486 7.8705Q120.829 8.25088 119.952 8.25088ZM148.507 8.25088C147.707 8.25088 147.027 7.99755 146.467 7.49088C145.933 6.95755 145.667 6.27755 145.667 5.45088C145.667 4.62421 145.933 3.95755 146.467 3.45088C147.027 2.91755 147.707 2.65088 148.507 2.65088C149.333 2.65088 150.013 2.91755 150.547 3.45088C151.08 3.95755 151.347 4.62421 151.347 5.45088C151.347 6.27755 151.08 6.95755 150.547 7.49088C150.013 7.99755 149.333 8.25088 148.507 8.25088ZM135.506 30.6509C134.306 30.6509 133.346 30.2909 132.626 29.5709C131.933 28.8509 131.586 27.8909 131.586 26.6909L131.586 14.4109L126.146 14.4109L126.146 10.9309L131.586 10.9309L131.586 4.41088L135.706 4.41088L135.706 10.9309L141.586 10.9309L141.586 14.4109L135.706 14.4109L135.706 25.9709C135.706 26.7709 136.08 27.1709 136.826 27.1709L140.946 27.1709L140.946 30.6509L135.506 30.6509ZM52.8923 15.9709L59.2523 15.9709Q61.344 15.9709 62.6614 14.9609Q62.78 14.87 62.8923 14.7709C63.7989 13.9709 64.2523 12.8775 64.2523 11.4909L64.2523 11.0909C64.2523 9.67755 63.7989 8.57088 62.8923 7.77088Q62.7802 7.67197 62.6618 7.58121L62.6614 7.58088Q61.344 6.57088 59.2523 6.57088L52.8923 6.57088L52.8923 15.9709ZM81.487 31.2109C79.5136 31.2109 77.7536 30.8109 76.207 30.0109C74.687 29.1842 73.4869 28.0109 72.6069 26.4909C71.727 24.9709 71.287 23.1709 71.287 21.0909L71.287 20.4909C71.287 18.4109 71.727 16.6242 72.6069 15.1309C73.4869 13.6109 74.687 12.4375 76.207 11.6109C77.7536 10.7842 79.5136 10.3709 81.487 10.3709C83.4603 10.3709 85.2203 10.7842 86.767 11.6109Q87.9154 12.2247 88.8188 13.0934Q89.7404 13.9795 90.407 15.1309C91.2869 16.6242 91.727 18.4109 91.727 20.4909L91.727 21.0909C91.727 23.1709 91.2869 24.9709 90.407 26.4909Q89.7404 27.6422 88.8188 28.5284Q87.9154 29.3971 86.767 30.0109C85.2203 30.8109 83.4603 31.2109 81.487 31.2109ZM104.936 31.2109C102.43 31.2109 100.35 30.6509 98.6963 29.5309C97.043 28.4109 96.0297 26.7175 95.6563 24.4509L99.4963 23.5309C99.7097 24.6242 100.07 25.4909 100.576 26.1309C101.083 26.7709 101.71 27.2242 102.456 27.4909C103.23 27.7575 104.056 27.8909 104.936 27.8909C106.243 27.8909 107.243 27.6375 107.936 27.1309Q108.597 26.6659 108.854 26.0363Q109.016 25.6368 109.016 25.1709C109.016 24.3709 108.683 23.7842 108.016 23.4109C107.35 23.0375 106.363 22.7309 105.056 22.4909L103.696 22.2509C102.363 22.0109 101.15 21.6642 100.056 21.2109C98.963 20.7575 98.0963 20.1309 97.4563 19.3309C96.8163 18.5309 96.4963 17.5042 96.4963 16.2509C96.4963 14.3842 97.1897 12.9442 98.5763 11.9309C99.963 10.8909 101.803 10.3709 104.096 10.3709C106.31 10.3709 108.123 10.8775 109.536 11.8909Q110.583 12.6081 111.273 13.5789Q112.006 14.6114 112.336 15.9309L108.496 17.0109C108.256 15.8109 107.75 14.9709 106.976 14.4909Q105.816 13.7309 104.096 13.7309C102.976 13.7309 102.096 13.9442 101.456 14.3709C100.816 14.7709 100.496 15.3442 100.496 16.0909C100.496 16.8909 100.803 17.4775 101.416 17.8509C102.056 18.2242 102.91 18.5042 103.976 18.6909L105.376 18.9309C106.79 19.1709 108.083 19.5042 109.256 19.9309C110.43 20.3575 111.35 20.9709 112.016 21.7709C112.71 22.5709 113.056 23.6375 113.056 24.9709C113.056 26.9442 112.323 28.4775 110.856 29.5709C109.39 30.6642 107.416 31.2109 104.936 31.2109ZM211.069 31.2109C208.562 31.2109 206.482 30.6509 204.829 29.5309Q204.13 29.0576 203.584 28.4478Q202.191 26.893 201.789 24.4509L205.629 23.5309C205.842 24.6242 206.202 25.4909 206.709 26.1309C207.216 26.7709 207.842 27.2242 208.589 27.4909C209.362 27.7575 210.189 27.8909 211.069 27.8909C212.376 27.8909 213.376 27.6375 214.069 27.1309Q214.73 26.6659 214.986 26.0363Q215.149 25.6368 215.149 25.1709C215.149 24.3709 214.816 23.7842 214.149 23.4109C213.482 23.0375 212.496 22.7309 211.189 22.4909L209.829 22.2509C208.496 22.0109 207.282 21.6642 206.189 21.2109C205.096 20.7575 204.229 20.1309 203.589 19.3309C202.949 18.5309 202.629 17.5042 202.629 16.2509C202.629 14.3842 203.322 12.9442 204.709 11.9309C206.096 10.8909 207.936 10.3709 210.229 10.3709C212.442 10.3709 214.256 10.8775 215.669 11.8909Q216.716 12.6081 217.406 13.5789Q218.139 14.6114 218.469 15.9309L214.629 17.0109C214.389 15.8109 213.882 14.9709 213.109 14.4909C212.336 13.9842 211.376 13.7309 210.229 13.7309C209.109 13.7309 208.229 13.9442 207.589 14.3709C206.949 14.7709 206.629 15.3442 206.629 16.0909C206.629 16.8909 206.936 17.4775 207.549 17.8509C208.189 18.2242 209.042 18.5042 210.109 18.6909L211.509 18.9309C212.922 19.1709 214.216 19.5042 215.389 19.9309C216.562 20.3575 217.482 20.9709 218.149 21.7709C218.842 22.5709 219.189 23.6375 219.189 24.9709C219.189 26.9442 218.456 28.4775 216.989 29.5709C215.522 30.6642 213.549 31.2109 211.069 31.2109ZM117.872 30.6509L117.872 10.9309L121.992 10.9309L121.992 30.6509L117.872 30.6509ZM146.427 30.6509L146.427 10.9309L150.547 10.9309L150.547 30.6509L146.427 30.6509ZM161.221 30.6509L154.581 10.9309L158.941 10.9309L164.181 27.6109L164.821 27.6109L170.061 10.9309L174.421 10.9309L167.781 30.6509L161.221 30.6509ZM185.979 31.0109C184.486 31.0109 183.152 30.6775 181.979 30.0109C180.805 29.3442 179.885 28.3975 179.219 27.1709C178.552 25.9442 178.219 24.4775 178.219 22.7709L178.219 10.9309L182.339 10.9309L182.339 22.4909Q182.339 25.0497 183.618 26.2897L183.619 26.2909C184.472 27.0909 185.659 27.4909 187.179 27.4909Q188.84 27.4909 190.067 26.7607L190.067 26.7605Q190.701 26.3832 191.219 25.8109C192.259 24.6642 192.779 23.0242 192.779 20.8909L192.779 10.9309L196.899 10.9309L196.899 30.6509L192.859 30.6509L192.859 27.6909L192.219 27.6909C191.845 28.4909 191.179 29.2509 190.219 29.9709C189.259 30.6642 187.846 31.0109 185.979 31.0109ZM81.487 27.5309C83.3003 27.5309 84.7669 26.9575 85.8869 25.8109Q86.1194 25.5731 86.3204 25.3111Q87.6069 23.6347 87.6069 20.9709L87.6069 20.6109C87.6069 18.5575 87.047 16.9575 85.927 15.8109C84.807 14.6375 83.327 14.0509 81.487 14.0509Q79.7714 14.0509 78.4492 14.7721Q77.7059 15.1775 77.087 15.8109C75.9669 16.9575 75.407 18.5575 75.407 20.6109L75.407 20.9709C75.407 23.0242 75.9669 24.6375 77.087 25.8109Q77.6664 26.3904 78.3549 26.7746Q79.7099 27.5309 81.487 27.5309Z" fill-rule="evenodd" />
	</symbol>
</svg>
