<svg viewBox="0 0 691.633 648.251" xmlns="http://www.w3.org/2000/svg" xmlns:xlink="http://www.w3.org/1999/xlink" width="691.632690" height="648.250977" fill="none" customFrame="#000000">
	<defs>
		<filter id="pixso_custom_mask_type_alpha">
			<feColorMatrix type="matrix" values="0 0 0 0 1 0 0 0 0 1 0 0 0 0 1 0 0 0 1 0 " />
		</filter>
	</defs>
	<mask id="mask_0" width="649.859436" height="648.000061" x="41.710693" y="0.125488" maskUnits="userSpaceOnUse">
		<g filter="url(#pixso_custom_mask_type_alpha)">
			<path id="Vector" d="M387.916 155.024L388.068 0.126468L386.076 4.72218e-05L366.64 153.715L347.205 4.72218e-05L345.213 0.125488L345.213 155.054L306.645 4.9802L304.684 5.35551L324.267 159.034L267.187 14.9086L265.288 15.5255L303.855 165.745L229.15 29.7872L227.345 30.6378L284.583 174.777L193.334 49.2976L191.649 50.3681L266.51 186.334L160.218 73.2835L158.681 74.5571L249.925 199.878L130.443 101.108L129.077 102.564L235.357 215.45L104.327 132.453L103.155 134.069L222.798 232.846L82.3533 166.842L81.3928 168.592L212.411 251.582L64.8414 203.638L64.107 205.494L204.542 271.493L52.1123 242.363L51.6156 244.296L199.187 292.24L44.3277 282.378L44.0774 284.359L196.505 313.338L41.6481 323.048L41.6481 325.044L196.505 334.754L44.0774 363.733L44.3268 365.713L199.187 356.003L51.6165 403.795L52.1114 405.729L204.57 376.745L64.107 442.757L64.8414 444.613L212.411 396.669L81.3928 479.659L82.3533 481.409L222.798 415.405L103.155 514.182L104.328 515.797L235.357 432.649L129.077 545.687L130.443 547.142L249.925 448.221L158.681 573.694L160.218 574.968L266.5 461.928L191.65 597.723L193.334 598.794L284.582 473.314L227.345 617.454L229.15 618.305L303.855 482.498L265.288 632.566L267.187 633.183L324.268 489.054L304.684 642.896L306.645 643.271L345.213 493.045L345.213 648.126L347.205 648.251L366.64 494.384L386.076 648.251L388.068 648.125L387.916 493.076L426.476 643.271L428.437 642.897L409.001 489.025L466.094 633.183L467.992 632.566L429.426 482.498L504.131 618.305L505.936 617.454L448.698 473.314L539.947 598.794L541.631 597.723L466.792 461.948L572.902 574.967L574.441 573.695L483.336 448.205L602.838 547.142L604.204 545.687L497.924 432.649L628.953 515.797L630.125 514.182L510.483 415.405L650.928 481.409L651.888 479.659L520.869 396.669L668.439 444.613L669.174 442.757L528.711 376.745L681.169 405.729L681.664 403.795L534.094 356.003L688.954 365.713L689.203 363.733L536.776 334.754L691.633 325.044L691.633 323.048L536.776 313.338L689.203 284.359L688.953 282.378L534.094 292.24L681.665 244.296L681.169 242.363L528.739 271.493L669.174 205.494L668.439 203.638L520.869 251.582L651.888 168.592L650.928 166.842L510.483 232.846L630.125 134.069L628.954 132.453L497.924 215.45L604.203 102.564L602.838 101.108L483.336 199.895L574.44 74.5564L572.902 73.284L466.782 186.314L541.632 50.3681L539.947 49.2976L448.698 174.777L505.936 30.6378L504.13 29.7872L429.426 165.745L467.992 15.5255L466.094 14.9086L409.002 159.062L428.437 5.35455L426.477 4.9802L387.916 155.024ZM387.912 159.057L386.909 162.963L386.913 158.93L387.06 8.15959L387.068 0.125488L386.06 8.09618L367.144 157.701L366.64 161.687L366.136 157.701L347.213 8.03439L346.213 0.125488L346.213 162.963L345.213 159.072L307.676 13.0096L305.676 5.22911L306.692 13.1981L325.753 162.786L326.264 166.791L324.777 163.038L269.192 22.6876L266.257 15.2769L268.239 22.9973L305.793 169.272L306.793 173.17L304.855 169.643L232.154 37.3305L228.274 30.2687L231.248 37.7575L286.953 178.037L288.44 181.782L286.07 178.523L197.226 56.3493L192.525 49.8858L196.38 56.8866L269.265 189.264L271.204 192.787L268.45 189.857L164.972 79.7996L159.49 73.9685L164.201 80.4389L253.032 202.447L255.405 205.706L252.298 203.137L136 106.999L129.806 101.879L241.52 220.538L238.118 218.383L103.792 133.298L109.952 138.383L226.444 234.56L229.551 237.125L225.904 235.411L89.1697 171.151L81.9279 167.747L88.6876 172.029L216.248 252.829L219.656 254.987L215.819 253.741L72.1487 207.064L64.5324 204.589L71.7801 207.995L208.504 272.251L212.155 273.967L208.193 273.209L59.7841 244.847L51.9246 243.345L59.5348 245.817L203.212 292.497L207.048 293.743L203.023 293.487L52.3152 283.889L44.2642 283.376L52.1897 284.883L200.532 313.085L204.495 313.839L200.469 314.091L49.7004 323.545L41.7107 324.046L49.7004 324.547L200.469 334.001L204.495 334.253L200.532 335.006L52.1283 363.22L44.2642 364.715L52.2533 364.214L203.023 354.76L207.048 354.508L203.212 355.751L59.5352 402.282L51.9246 404.747L59.7837 403.253L208.207 375.035L212.155 374.285L208.518 375.994L71.78 440.256L64.5324 443.662L72.1487 441.187L215.819 394.51L219.656 393.264L216.248 395.422L81.9279 480.504L89.1698 477.1L225.904 412.84L229.551 411.126L226.444 413.691L109.992 509.834L103.792 514.953L110.58 510.645L238.117 429.713L241.52 427.554L238.76 430.49L135.314 540.513L129.806 546.372L136 541.244L252.297 444.958L255.405 442.386L253.032 445.648L164.176 567.839L159.49 574.283L164.947 568.478L268.445 458.399L271.204 455.464L269.259 458.992L196.398 591.181L192.525 598.206L197.243 591.718L286.07 469.569L288.44 466.309L286.953 470.055L231.237 610.362L228.274 617.823L232.143 610.789L304.855 478.604L306.793 475.081L305.793 478.975L268.245 625.08L266.257 632.815L269.198 625.39L324.778 485.052L326.264 481.301L325.754 485.303L306.692 635.045L305.676 643.022L307.676 635.233L345.213 489.024L346.213 485.129L346.213 648.126L347.213 640.209L366.136 490.394L366.64 486.405L367.144 490.394L386.06 640.147L387.068 648.126L387.06 640.084L386.913 489.166L386.909 485.129L387.912 489.039L425.461 635.293L427.445 643.022L426.445 635.106L407.521 485.289L407.017 481.301L408.497 485.038L464.083 625.39L467.024 632.815L465.036 625.08L427.488 478.975L426.487 475.081L428.425 478.604L501.138 610.789L505.007 617.823L502.044 610.362L446.328 470.055L444.841 466.309L447.211 469.569L536.038 591.718L540.755 598.206L536.883 591.18L464.027 459.002L462.077 455.464L464.842 458.409L568.182 568.478L573.631 574.283L568.954 567.839L480.239 445.64L477.876 442.386L480.974 444.95L597.281 541.243L603.475 546.372L597.967 540.513L494.521 430.49L491.761 427.554L495.164 429.713L622.7 510.645L629.489 514.953L623.289 509.834L506.837 413.691L503.73 411.126L507.376 412.84L644.111 477.1L651.353 480.504L644.593 476.222L517.033 395.422L513.625 393.264L517.462 394.51L661.132 441.187L668.748 443.662L661.501 440.256L524.763 375.994L521.126 374.285L525.074 375.035L673.497 403.253L681.356 404.747L673.746 402.282L530.069 355.751L526.233 354.508L530.258 354.76L681.028 364.214L689.017 364.715L681.153 363.22L532.749 335.006L528.786 334.253L532.812 334.001L683.581 324.547L691.57 324.046L683.581 323.545L532.812 314.091L528.786 313.839L532.749 313.085L681.091 284.883L689.017 283.376L680.966 283.889L530.258 293.487L526.233 293.743L530.069 292.497L673.746 245.817L681.356 243.345L673.497 244.847L525.088 273.209L521.126 273.967L524.777 272.251L661.501 207.995L668.748 204.589L661.132 207.064L517.462 253.741L513.625 254.987L517.033 252.829L644.593 172.029L651.353 167.747L644.111 171.151L507.376 235.411L503.73 237.125L506.837 234.56L623.329 138.383L629.489 133.298L622.741 137.572L491.761 220.538L494.522 217.605L597.966 107.73L603.475 101.879L597.281 106.999L480.974 203.145L477.876 205.706L480.239 202.455L568.928 80.4387L573.631 73.9685L568.157 79.7999L464.837 189.847L462.077 192.787L464.022 189.254L536.901 56.8867L540.755 49.8858L536.055 56.3493L447.211 178.523L444.841 181.782L446.328 178.037L502.033 37.7574L505.007 30.2687L501.127 37.3305L428.425 169.643L426.487 173.17L427.488 169.272L465.042 22.9974L467.024 15.2769L464.089 22.6877L408.498 163.052L407.017 166.791L407.522 162.801L426.445 13.1378L427.445 5.22911L425.461 12.9498L387.912 159.057Z" fill="rgb(0,0,0)" fill-rule="evenodd" />
		</g>
	</mask>
	<g id="Illustration">
		<g id="Mask group" mask="url(#mask_0)">
			<rect id="Rectangle 77" width="1152.826538" height="702.852234" x="-785.720947" y="-37.991699" rx="45.000000" fill="rgb(0,0,0)" />
		</g>
		<path id="Vector" d="M50.0707 14.71L100 0L85.4314 50.0707L100 100L50.0707 85.4314L0 100L14.71 50.0707L0 0L50.0707 14.71Z" fill="rgb(185,255,102)" fill-rule="nonzero" transform="matrix(0.707107,0.707107,-0.707107,0.707107,70.7107,424.415)" />
		<path id="Vector" d="M89.4731 26.2859L178.693 0L152.66 89.4731L178.693 178.693L89.4731 152.66L0 178.693L26.2859 89.4731L0 0L89.4731 26.2859Z" fill="rgb(25,26,35)" fill-rule="nonzero" transform="matrix(0.707107,0.707107,-0.707107,0.707107,172.422,161.836)" />
	</g>
</svg>
